<?xml version="1.0" encoding="UTF-8" standalone="no"?>
<!-- Created with Inkscape (http://www.inkscape.org/) -->

<svg
   xmlns:dc="http://purl.org/dc/elements/1.1/"
   xmlns:cc="http://creativecommons.org/ns#"
   xmlns:rdf="http://www.w3.org/1999/02/22-rdf-syntax-ns#"
   xmlns:svg="http://www.w3.org/2000/svg"
   xmlns="http://www.w3.org/2000/svg"
   xmlns:sodipodi="http://sodipodi.sourceforge.net/DTD/sodipodi-0.dtd"
   xmlns:inkscape="http://www.inkscape.org/namespaces/inkscape"
   width="53.55901mm"
   height="7.1478901mm"
   viewBox="0 0 53.55901 7.1478901"
   version="1.1"
   id="svg3786"
   inkscape:version="0.92.3 (2405546, 2018-03-11)"
   sodipodi:docname="logoText.svg">
  <defs
     id="defs3780" />
  <sodipodi:namedview
     id="base"
     pagecolor="#ffffff"
     bordercolor="#666666"
     borderopacity="1.0"
     inkscape:pageopacity="0.0"
     inkscape:pageshadow="2"
     inkscape:zoom="1.8101934"
     inkscape:cx="180.67367"
     inkscape:cy="16.596528"
     inkscape:document-units="mm"
     inkscape:current-layer="layer1"
     showgrid="false"
     inkscape:window-width="1920"
     inkscape:window-height="1001"
     inkscape:window-x="-9"
     inkscape:window-y="-9"
     inkscape:window-maximized="1"
     fit-margin-top="0"
     fit-margin-left="0"
     fit-margin-right="0"
     fit-margin-bottom="0"
     inkscape:pagecheckerboard="false" />
  <metadata
     id="metadata3783">
    <rdf:RDF>
      <cc:Work
         rdf:about="">
        <dc:format>image/svg+xml</dc:format>
        <dc:type
           rdf:resource="http://purl.org/dc/dcmitype/StillImage" />
        <dc:title></dc:title>
      </cc:Work>
    </rdf:RDF>
  </metadata>
  <g
     inkscape:label="Layer 1"
     inkscape:groupmode="layer"
     id="layer1"
     transform="translate(-79.053831,-145.25939)">
    <path
       inkscape:connector-curvature="0"
       style="fill:#4b4b4b;stroke-width:0.26458332"
       d="m 85.028402,149.74155 0.819847,-4.48216 h 1.708423 l -1.516962,7.14789 h -1.786971 l -0.957306,-4.07469 -0.937669,4.07469 h -1.782062 l -1.521871,-7.14789 h 1.713332 l 0.819847,4.48216 0.981852,-4.48216 h 1.46296 z m 10.171782,1.33041 H 92.83883 l -0.412378,1.33532 h -1.840973 l 2.621545,-7.14789 h 1.620056 l 2.641183,7.14789 h -1.850792 z m -1.948976,-1.33041 h 1.536598 l -0.770754,-2.47918 z m 9.582672,1.34022 h 2.99956 v 1.32551 h -4.72271 v -7.14789 h 1.72315 z m 8.57136,0 h 2.99956 v 1.32551 h -4.72271 v -7.14789 h 1.72315 z m 11.28128,-1.70351 h -2.70992 v 1.70351 h 3.20084 v 1.32551 h -4.92399 v -7.14789 h 4.93381 v 1.33041 h -3.21066 v 1.50714 h 2.70992 z m 9.92632,-2.78846 h -2.14535 v 5.81748 h -1.72315 v -5.81748 h -2.10607 v -1.33041 h 5.97457 z"
       id="path26" />
  </g>
</svg>
